<svg width="67" height="25" viewBox="0 0 67 25" fill="none" xmlns="http://www.w3.org/2000/svg">
<path d="M47.2176 21.1699C47.5436 16.336 49.9191 13.5998 53.8316 13.5542C58.0701 13.463 60.4456 16.0168 60.9113 21.1699C62.7279 21.5348 64.8238 21.626 65.6622 19.9386C66.3609 18.5249 65.9417 16.5184 65.9417 14.8311C65.9417 14.2382 65.5691 13.691 65.4293 13.0981C64.8238 10.818 63.6128 9.31306 61.1908 8.4922C58.2564 7.44333 55.2289 6.21204 52.7137 4.43351C47.3573 0.739636 41.5352 -0.263637 35.2472 0.055586C28.2606 0.420413 22.3453 2.9742 16.8026 7.21531C14.6135 8.90263 11.2599 9.17625 8.37209 9.8603C5.62403 10.5444 2.96912 11.2284 1.33891 13.7822C0.174477 15.6063 -0.617332 17.4761 0.640251 19.5282C1.94442 21.6716 4.13355 21.3979 6.22953 21.2155C6.78846 15.8343 9.16391 13.4174 13.5422 13.5542C17.3615 13.6454 19.6438 16.336 19.9233 21.1699C28.9127 21.1699 37.9953 21.1699 47.2176 21.1699ZM52.6671 8.53781C47.0779 8.53781 42.0941 8.53781 36.924 8.53781C37.0172 6.80488 37.1103 5.02635 37.2035 3.11101C43.0722 2.79179 47.9628 4.3879 52.6671 8.53781ZM34.828 2.9742C34.6417 5.11756 34.502 6.98729 34.3157 8.81143C29.2853 8.81143 24.6742 8.81143 19.7835 8.81143C24.1152 4.84394 28.8661 3.0198 34.828 2.9742Z" fill="#1D4076"/>
<path d="M54.0589 24.9999C56.9467 24.9999 59.229 22.7654 59.1824 19.9836C59.1358 17.2474 56.7604 14.9216 54.0123 14.9672C51.2177 14.9672 48.8422 17.3386 48.8888 20.0292C48.8888 22.8566 51.1711 24.9999 54.0589 24.9999Z" fill="#1D4076"/>
<path d="M8.08972 19.9834C8.08972 22.902 10.2323 24.9998 13.1666 24.9998C16.0544 24.9998 18.3833 22.7652 18.3833 20.029C18.3833 17.384 15.9147 14.967 13.1666 14.967C10.3254 14.9214 8.08972 17.156 8.08972 19.9834Z" fill="#1D4076"/>
</svg>
