<svg width="30" height="17" viewBox="0 0 30 17" fill="none" xmlns="http://www.w3.org/2000/svg">
<path fill-rule="evenodd" clip-rule="evenodd" d="M29.9999 11.6372C29.6784 12.0662 29.357 12.5489 28.982 12.9243C27.857 14.0505 26.732 15.1767 25.607 16.3028C25.1784 16.7319 24.7499 17.1609 24.107 16.8927C23.5713 16.6782 23.5713 16.0883 23.5713 15.5521C23.5713 15.4448 23.5713 15.3912 23.5177 15.0694C22.8213 16.4101 21.6963 16.4637 20.5177 16.4637C14.5713 16.4637 8.62486 16.4101 2.67843 16.4637C1.33915 16.4637 0.428432 15.9811 -0.0537109 14.7476C-0.0537109 10.4038 -0.0537109 6.11356 -0.0537109 1.76972C0.642718 0.321766 1.07129 0 2.67843 0C8.83915 0 14.9999 0 21.2141 0C22.8749 0 23.6784 0.804416 23.732 2.46688C23.732 3.53943 23.732 4.61199 23.732 5.68454C24.5891 5.25552 24.9106 5.30915 25.5534 5.95268C26.8391 7.23975 28.1249 8.52681 29.4106 9.81388C29.6784 10.082 29.8391 10.4574 30.0534 10.7792C29.9999 11.1009 29.9999 11.3691 29.9999 11.6372ZM11.8927 1.07256C8.78557 1.07256 5.67843 1.07256 2.62486 1.07256C2.41057 1.07256 2.14272 1.01893 2.03557 1.12618C1.71415 1.34069 1.39272 1.60883 1.17843 1.9306C1.12486 2.03785 1.44629 2.46688 1.66057 2.62776C4.87486 4.71924 8.08915 6.7571 11.3034 8.84858C11.732 9.11672 11.9999 9.11672 12.4284 8.84858C15.6427 6.7571 18.9106 4.71924 22.1249 2.62776C22.7141 2.25237 22.7141 1.71609 22.1249 1.34069C21.857 1.17981 21.5356 1.07256 21.2141 1.07256C18.107 1.07256 14.9999 1.07256 11.8927 1.07256ZM22.4999 14.5868C21.2677 14.5868 20.1427 14.5331 19.0713 14.5868C16.9284 14.694 16.1784 14.1577 16.2856 11.7445C16.3391 9.97476 16.2856 9.97476 14.7856 9.11672C14.6249 9.00946 14.3034 9.00946 14.0891 9.11672C13.4999 9.43849 12.9641 9.81388 12.3749 10.1893C11.9999 10.4574 11.732 10.4574 11.357 10.1893C10.7677 9.81388 10.232 9.43849 9.58915 9.06309C9.42843 8.95584 9.16057 8.95584 8.99986 9.06309C6.42843 10.6719 3.91057 12.2808 1.39272 13.9432C1.232 14.0505 1.12486 14.4259 1.17843 14.5868C1.39272 15.2303 1.92843 15.3375 2.51772 15.3375C7.39272 15.3375 12.2677 15.3375 17.1427 15.3375C18.5356 15.3375 19.8749 15.3375 21.2677 15.3375C21.8034 15.3375 22.232 15.2303 22.4999 14.5868ZM24.6963 6.70347C24.6963 7.29338 24.6963 7.66877 24.6963 8.04416C24.6963 8.79495 24.5891 8.95584 23.7856 8.95584C21.9641 8.95584 20.1963 8.95584 18.3749 8.95584C17.5177 8.95584 17.357 9.11672 17.357 10.0284C17.357 10.8328 17.357 11.6372 17.357 12.4416C17.357 13.2997 17.5177 13.5142 18.4284 13.5142C20.2499 13.5142 22.0177 13.5142 23.8391 13.5142C24.6427 13.5142 24.6963 13.6215 24.6963 14.4259C24.6963 14.8013 24.6963 15.1767 24.6963 15.7129C25.8749 14.5331 26.9463 13.4606 27.9641 12.4416C29.1427 11.2618 29.1427 11.2618 27.9641 10.082C26.9463 9.00946 25.8749 7.93691 24.6963 6.70347ZM8.24986 8.20505C5.89272 6.64984 3.53557 5.20189 1.17843 3.64669C1.17843 6.7571 1.17843 9.70662 1.17843 12.7634C3.53557 11.2082 5.89272 9.76025 8.24986 8.20505ZM16.4463 8.84858C16.8749 8.04416 17.6249 7.82965 18.4284 7.88328C18.9641 7.93691 19.5534 7.88328 20.0891 7.88328C20.8927 7.88328 21.6963 7.88328 22.4999 7.88328C22.4999 6.43533 22.4999 5.09464 22.4999 3.70032C20.0891 5.25552 17.7856 6.70347 15.4284 8.20505C15.8034 8.41956 16.0713 8.58044 16.4463 8.84858Z" fill="#21325E"/>
</svg>
