<svg width="19" height="19" viewBox="0 0 19 19" fill="none" xmlns="http://www.w3.org/2000/svg">
<path fill-rule="evenodd" clip-rule="evenodd" d="M9.76894 3.82414C10.0703 4.05018 10.3717 4.35156 10.6731 4.65293C8.94015 6.38586 7.20723 8.04344 5.54964 9.77637C4.7962 10.5298 3.96741 11.3586 3.21396 12.112C2.98793 12.3381 2.83724 12.5641 2.7619 12.7901C2.46052 13.6189 2.23448 14.5231 2.00845 15.3519C1.78242 16.03 2.38517 16.5574 3.06327 16.3313C3.89206 16.1053 4.72085 15.8793 5.4743 15.5779C5.77568 15.4272 6.07706 15.2012 6.30309 14.9751C8.56343 12.7148 10.8238 10.4545 13.0841 8.19413C13.2348 8.04344 13.4608 7.81741 13.6115 7.66672C13.9129 8.04344 14.2143 8.34482 14.5156 8.72154C14.5156 8.72154 14.365 8.87223 14.2896 9.02292C11.8032 11.4339 9.39222 13.9203 6.90585 16.3313C6.67981 16.5574 6.45378 16.7081 6.22775 16.7834C4.57017 17.3108 2.83724 17.8382 1.10431 18.2903C0.802936 18.3656 0.350869 18.3656 0.124835 18.1396C-0.0258542 18.0643 -0.0258542 17.6122 0.0494904 17.3108C0.501558 15.5779 1.02897 13.9203 1.55638 12.1874C1.63173 11.9614 1.78242 11.7353 1.9331 11.5093C4.49482 8.87223 7.05654 6.23517 9.54291 3.52277C9.61825 3.67346 9.6936 3.7488 9.76894 3.82414Z" fill="#21325E"/>
<path fill-rule="evenodd" clip-rule="evenodd" d="M4.87123 14.5985C4.87123 13.7697 4.41916 13.4684 3.81641 13.4684C6.37812 10.9066 9.01518 8.26959 11.5769 5.70787C11.8783 6.00925 12.255 6.46132 12.6317 6.83804C10.07 9.32441 7.50829 11.8861 4.87123 14.5985Z" fill="#21325E"/>
<path fill-rule="evenodd" clip-rule="evenodd" d="M17.2282 5.8585C15.646 4.27627 14.1391 2.76937 12.5569 1.18714C13.461 -0.244408 14.5912 -0.395098 15.7967 0.810416C16.3241 1.33783 16.7762 1.86524 17.3036 2.31731C18.8105 3.74885 18.7351 4.5023 17.2282 5.8585Z" fill="#21325E"/>
<path fill-rule="evenodd" clip-rule="evenodd" d="M10.5977 2.84478C10.899 2.5434 11.2758 2.24202 11.5771 1.94064C13.2347 3.59822 14.817 5.2558 16.4745 6.91339C16.1732 7.13942 15.8718 7.51614 15.4951 7.81752C13.9128 6.15994 12.2552 4.50236 10.5977 2.84478Z" fill="#21325E"/>
</svg>
