<svg width="24" height="24" viewBox="0 0 24 24" fill="none" xmlns="http://www.w3.org/2000/svg">
<path fill-rule="evenodd" clip-rule="evenodd" d="M13.5317 2C13.5317 0.89543 12.6363 0 11.5317 0C10.4272 0 9.53173 0.89543 9.53173 2V9.53462H2C0.895432 9.53462 0 10.43 0 11.5346C0 12.6392 0.895431 13.5346 2 13.5346H9.53173V21.0694C9.53173 22.1739 10.4272 23.0694 11.5317 23.0694C12.6363 23.0694 13.5317 22.1739 13.5317 21.0694V13.5346H21.0694C22.1739 13.5346 23.0694 12.6392 23.0694 11.5346C23.0694 10.43 22.1739 9.53462 21.0694 9.53462H13.5317V2Z" fill="white"/>
</svg>
