<svg width="24" height="24" viewBox="0 0 24 24" fill="none" xmlns="http://www.w3.org/2000/svg">
<path d="M3.26557 3.14804L3.26549 3.14796L3.25799 3.15551C-0.00965703 6.44075 -0.43418 11.5258 2.30772 15.1134C4.42138 17.9853 8.7127 20.3022 13.7932 17.974C14.4881 17.6556 15.2642 17.7618 15.7244 18.253C15.8509 18.3881 15.9775 18.5238 16.1044 18.66C16.5898 19.1805 17.0815 19.7078 17.6047 20.2339C18.1157 20.7476 18.5919 21.2583 19.0744 21.7757C19.2694 21.9849 19.4655 22.1952 19.6653 22.4072C20.3542 23.1381 21.5101 23.1917 22.2376 22.4613C23.0053 21.6906 23.0582 20.3995 22.266 19.6045C20.926 18.2599 19.5835 16.9224 18.2402 15.629C17.7597 15.1664 17.6281 14.4225 17.8974 13.7557C18.8164 11.4799 19.042 9.28145 18.5719 7.31066C18.1011 5.33622 16.9404 3.62729 15.1537 2.32582C11.461 -0.422706 6.53674 -0.00370097 3.26557 3.14804ZM9.8165 3.35838C13.2738 3.35838 16.0375 6.23817 16.0375 9.74551C16.0375 13.3703 13.2861 16.1326 9.68725 16.1326C6.2115 16.1326 3.33699 13.3641 3.33699 9.74551C3.33699 6.13294 6.20537 3.35838 9.8165 3.35838Z" fill="#1D4076" stroke="#1D4076"/>
</svg>
