<svg width="20" height="21" viewBox="0 0 20 21" fill="none" xmlns="http://www.w3.org/2000/svg">
<path d="M3.35355 18.8579L3.35342 18.8581C3.08155 19.1271 2.724 19.3527 2.37131 19.4513C1.71352 19.6364 1.03187 19.281 0.718611 18.7112L0.718452 18.7109C0.568648 18.4379 0.486805 18.1432 0.507352 17.8333C0.527836 17.5242 0.647266 17.2424 0.83016 16.9895C0.919808 16.8644 1.02989 16.756 1.11027 16.6769C1.11496 16.6723 1.11954 16.6678 1.12402 16.6634L7.60516 10.1554L7.60633 10.1543C7.65713 10.1036 7.70746 10.0506 7.762 9.99214C7.69653 9.92183 7.63687 9.85837 7.57618 9.79733C7.57598 9.79713 7.57579 9.79694 7.57559 9.79674L5.35997 7.58631L5.35988 7.58622C5.16835 7.39505 4.9768 7.20387 4.78524 7.01269C3.54084 5.77073 2.29608 4.52841 1.0543 3.28262C0.611051 2.83857 0.387847 2.21676 0.555172 1.61225L0.55524 1.61201C0.707193 1.06412 1.14213 0.68499 1.68757 0.548835L3.35355 18.8579ZM3.35355 18.8579C4.98756 17.2399 6.61175 15.6131 8.23438 13.9853L3.35355 18.8579ZM10.0007 12.2239C10.0716 12.2909 10.1355 12.3522 10.1972 12.4134C10.1976 12.4137 10.1979 12.414 10.1982 12.4143L11.766 13.985C13.3892 15.6124 15.0135 17.2399 16.6469 18.8571C16.9191 19.1272 17.2772 19.3531 17.6298 19.4513C18.2909 19.6369 18.9685 19.2797 19.281 18.7108C19.2811 18.7108 19.2811 18.7107 19.2811 18.7107L18.8429 18.47M10.0007 12.2239L18.8914 16.6785C18.8862 16.6734 18.8811 16.6685 18.8762 16.6636L18.8777 16.6652L18.5236 17.0181M10.0007 12.2239C9.92937 12.2912 9.8661 12.3518 9.80484 12.413C9.80468 12.4131 9.80451 12.4133 9.80435 12.4134L8.23474 13.9849L10.0007 12.2239ZM18.8429 18.47C19.0698 18.0571 19.044 17.6684 18.7644 17.2823M18.8429 18.47C18.6252 18.8663 18.1694 19.0839 17.764 18.9697L18.8429 18.47ZM18.7644 17.2823L19.1721 16.9929C19.1716 16.9923 19.1711 16.9916 19.1706 16.9909C19.1702 16.9903 19.1697 16.9896 19.1693 16.989L18.7644 17.2823ZM18.7644 17.2823C18.701 17.1931 18.619 17.1122 18.533 17.0274L18.5236 17.0181M18.5236 17.0181L18.8748 16.6622L17.5108 15.2937L17.1565 15.6465M18.5236 17.0181L17.1565 15.6465M17.1565 15.6465L17.5107 15.2936M17.1565 15.6465L17.5107 15.2936M17.5107 15.2936L12.3948 10.1564L12.3948 10.1564L12.3923 10.1539C12.3415 10.1037 12.2922 10.0516 12.2378 9.99308M17.5107 15.2936L19.4448 1.61275M12.2378 9.99308C12.3042 9.92196 12.3627 9.85945 12.4233 9.79881L12.423 9.79907L12.0699 9.44512M12.2378 9.99308C12.2324 9.99888 12.227 10.0047 12.2215 10.0107C12.2103 10.0226 12.199 10.0348 12.1874 10.0472L12.1862 10.0484L11.9181 10.3338L11.8001 10.2229L11.8 10.2228L11.5537 9.99138L11.8408 9.72386L11.8409 9.7238L11.9195 9.65053L12.1494 9.89724L12.1515 9.89946L12.1515 9.89947L12.158 9.90651C12.1861 9.93708 12.2125 9.96578 12.2378 9.99308ZM12.0699 9.44512L12.4237 9.79843L14.6403 7.58663M12.0699 9.44512L14.2872 7.23267M12.0699 9.44512C11.9977 9.51738 11.928 9.59213 11.8552 9.67023L14.2872 7.23267M14.6403 7.58663C16.0763 6.15397 17.513 4.7202 18.9459 3.28336M14.6403 7.58663L14.2872 7.23267M14.6403 7.58663L14.6403 7.58661L14.2872 7.23267M18.9459 3.28336C19.3893 2.83891 19.612 2.21711 19.4448 1.61275M18.9459 3.28336C18.9459 3.28339 18.9459 3.28341 18.9458 3.28344L18.5919 2.9303M18.9459 3.28336L18.5919 2.9303M19.4448 1.61275L18.9629 1.74597C19.0731 2.14394 18.9345 2.58682 18.5919 2.9303M19.4448 1.61275L14.2872 7.23267M18.5919 2.9303C17.1595 4.36663 15.7232 5.79998 14.2872 7.23267M18.3134 0.549587C18.0198 0.475972 17.7267 0.480272 17.4297 0.594819C17.1481 0.703413 16.8991 0.897539 16.66 1.1373L17.0141 1.49034M18.3134 0.549587L17.0141 1.49034M18.3134 0.549587C18.8601 0.685926 19.2934 1.06502 19.4448 1.61258L18.3134 0.549587ZM17.0141 1.49034L16.6604 1.1369C14.8843 2.9141 13.1065 4.68838 11.328 6.46181M17.0141 1.49034L11.328 6.46181M11.328 6.46181L10.2087 7.57737L10.2085 7.57752C10.1422 7.6437 10.0744 7.70809 9.99964 7.77814C9.92533 7.70854 9.85696 7.64361 9.79071 7.5778C9.79061 7.5777 9.79051 7.5776 9.7904 7.57749L8.67148 6.46198C8.67145 6.46194 8.67142 6.46191 8.67138 6.46188C8.67135 6.46185 8.67132 6.46182 8.67129 6.46179C8.47442 6.2653 8.27754 6.06883 8.08066 5.87234C6.50031 4.29519 4.9197 2.71778 3.34145 1.13647L3.34108 1.1361C3.10116 0.896216 2.85157 0.70257 2.57005 0.594259C2.27334 0.480099 1.98066 0.475613 1.68777 0.548784L11.328 6.46181Z" fill="#1D4076" stroke="#1D4076"/>
</svg>
